 
http://img1.UploadScreenshot.com/images/main/8/23806063611.jpg


Torchwood S04E08 HDTV XviD-LOL][ICM369

Airdate USA : Thursday 26 August 2011 

Aidate UK   : Thursday 01 September 2011

'End Of The Road' 

Much of the episode unfolds in an opulent mansion in Nevada, where 
the Torchwood team form an uneasy alliance with the CIA.

Jack faces a showdown with a man he thought was long since dead. 
But while Rex takes extreme action, is it too late to prevent the 
collapse of society?

Gwen flips at her threatened deportation back to Cardiff; and Jack 
gets to do a Big Emotional Scene over lost loves, wherein even his 
deceased boyfriend/lackey Ianto gets a name-check. 

New boss Alan Shapiro steps into the fray, played by John de Lancie, 
immediately recognisable to Star Trek fans as oily recurring villain Q. 

Fate turns against Oswald Danes and things look up for Jilly Kitzinger

Cast

Capt Jack Harkness - John Barrowman 
Gwen Cooper - Eve Myles 
Rex Matheson - Mekhi Phifer 
Esther Drummond - Alexa Havins 
Rhys Williams - Kai Owen 
Oswald Danes - Bill Pullman 
Jilly Kitzinger - Lauren Ambrose 
Sarah - Candace Brown 
Mary Cooper - Sharon Morgan 
Charlotte - Marina Benedict 
Allen Shapiro - John de Lancie 
Brian Friedkin - Wayne Knight 
Noah - Paul James 
Sgt Andy Davidson - Tom Price 
Blue-eyed man - Teddy Sears 
Olivia Colasanto - Nana Visitor 
Claire - Megan Duffy 
Shawnie - Constance Wu 
Agent Baylor - David Desantos 
Wilson - Nayo K Wallace 
Directed by: Gwyneth Horder-Payton
__________

Format                           : AVI
Format/Info                      : Audio Video Interleave
File size                        : 549 MiB
Duration                         : 54mn 9s
Overall bit rate                 : 1 416 Kbps
Writing application              : transcode-1.0.6

Video
ID                               : 0
Format                           : MPEG-4 Visual
Format profile                   : Advanced Simple@L5
Format settings, BVOP            : 2
Format settings, QPel            : No
Format settings, GMC             : No warppoints
Format settings, Matrix          : Default (H.263)
Codec ID                         : XVID
Codec ID/Hint                    : XviD
Duration                         : 54mn 9s
Bit rate                         : 1 279 Kbps
Width                            : 624 pixels
Height                           : 352 pixels
Display aspect ratio             : 16:9
Frame rate                       : 23.976 fps
Color space                      : YUV
Chroma subsampling               : 4:2:0
Bit depth                        : 8 bits
Scan type                        : Progressive
Compression mode                 : Lossy
Bits/(Pixel*Frame)               : 0.243
Stream size                      : 496 MiB (90%)
Writing library                  : XviD 1.3.0.dev55

Audio
ID                               : 1
Format                           : MPEG Audio
Format version                   : Version 1
Format profile                   : Layer 3
Mode                             : Joint stereo
Codec ID                         : 55
Codec ID/Hint                    : MP3
Duration                         : 54mn 9s
Bit rate mode                    : Variable
Bit rate                         : 128 Kbps
Channel(s)                       : 2 channels
Sampling rate                    : 48.0 KHz
Compression mode                 : Lossy
Stream size                      : 48.1 MiB (9%)
Alignment                        : Aligned on interleaves
Interleave, duration             : 24 ms (0.58 video frame)
Writing library                  : LAME3.92 
Encoding settings                : -m j -V 4 -q 2 -lowpass 17.5 --abr 128
__________

Enjoy:D
